# xmcd
#
# Track frame offsets:
#	150
#	44476
#	100839
#	158715
#	214818
#	249828
#	278896
#	308489
#
# Disc length: 4481 seconds
#
# Revision: 0
# Processed by: cddbd v1.5.2PL0 Copyright (c) Steve Scherf et al.
# Submitted via: audiograbber 1.83.01
#
DISCID=63117f08
DTITLE=Grateful Dead - 93-06-18 Soldier Field, Chicago IL
DYEAR=1900
DGENRE=
TTITLE0=Playing In The Band
TTITLE1=Uncle John's Band
TTITLE2=Drums
TTITLE3=Space
TTITLE4=All Along The Watchtower
TTITLE5=China Doll
TTITLE6=Turn On Your Lovelight
TTITLE7=Liberty
EXTD=
EXTT0=
EXTT1=
EXTT2=
EXTT3=
EXTT4=
EXTT5=
EXTT6=
EXTT7=
PLAYORDER=
